HIERARCHY
ROOT Hips
{
	OFFSET 0.00000 0.00000 0.00000
	CHANNELS 6 Xposition Yposition Zposition Zrotation Yrotation Xrotation 
	JOINT LHipJoint
	{
		OFFSET 0 0 0
		CHANNELS 3 Zrotation Yrotation Xrotation
		JOINT LeftUpLeg
		{
			OFFSET 1.53139 -1.83434 0.76626
			CHANNELS 3 Zrotation Yrotation Xrotation
			JOINT LeftLeg
			{
				OFFSET 2.56112 -7.03663 0.00000
				CHANNELS 3 Zrotation Yrotation Xrotation
				JOINT LeftFoot
				{
					OFFSET 2.59983 -7.14299 0.00000
					CHANNELS 3 Zrotation Yrotation Xrotation
					JOINT LeftToeBase
					{
						OFFSET 0.13742 -0.37757 2.00054
						CHANNELS 3 Zrotation Yrotation Xrotation
						End Site
						{
							OFFSET 0.00000 -0.00000 1.02897
						}
					}
				}
			}
		}
	}
	JOINT RHipJoint
	{
		OFFSET 0 0 0
		CHANNELS 3 Zrotation Yrotation Xrotation
		JOINT RightUpLeg
		{
			OFFSET -1.40122 -1.83435 0.76627
			CHANNELS 3 Zrotation Yrotation Xrotation
			JOINT RightLeg
			{
				OFFSET -2.54052 -6.98003 0.00000
				CHANNELS 3 Zrotation Yrotation Xrotation
				JOINT RightFoot
				{
					OFFSET -2.63179 -7.23079 0.00000
					CHANNELS 3 Zrotation Yrotation Xrotation
					JOINT RightToeBase
					{
						OFFSET -0.24131 -0.66299 2.03908
						CHANNELS 3 Zrotation Yrotation Xrotation
						End Site
						{
							OFFSET -0.00000 -0.00000 1.07391
						}
					}
				}
			}
		}
	}
	JOINT LowerBack
	{
		OFFSET 0 0 0
		CHANNELS 3 Zrotation Yrotation Xrotation
		JOINT Spine
		{
			OFFSET 0.01174 2.10302 -0.29778
			CHANNELS 3 Zrotation Yrotation Xrotation
			JOINT Spine1
			{
				OFFSET 0.00772 2.13227 -0.01247
				CHANNELS 3 Zrotation Yrotation Xrotation
				JOINT Neck
				{
					OFFSET 0 0 0
					CHANNELS 3 Zrotation Yrotation Xrotation
					JOINT Neck1
					{
						OFFSET -0.09219 1.60848 0.31481
						CHANNELS 3 Zrotation Yrotation Xrotation
						JOINT Head
						{
							OFFSET 0.13974 1.65456 -0.31134
							CHANNELS 3 Zrotation Yrotation Xrotation
							End Site
							{
								OFFSET 0.04742 1.69515 -0.14578
							}
						}
					}
				}
				JOINT LeftShoulder
				{
					OFFSET 0 0 0
					CHANNELS 3 Zrotation Yrotation Xrotation
					JOINT LeftArm
					{
						OFFSET 3.24909 1.02882 -0.23993
						CHANNELS 3 Zrotation Yrotation Xrotation
						JOINT LeftForeArm
						{
							OFFSET 5.32955 -0.00000 -0.00000
							CHANNELS 3 Zrotation Yrotation Xrotation
							JOINT LeftHand
							{
								OFFSET 3.69232 -0.00000 -0.00000
								CHANNELS 3 Zrotation Yrotation Xrotation
								JOINT LeftFingerBase
								{
									OFFSET 0 0 0
									CHANNELS 3 Zrotation Yrotation Xrotation
									JOINT LeftHandIndex1
									{
										OFFSET 0.53660 -0.00000 -0.00000
										CHANNELS 3 Zrotation Yrotation Xrotation
										End Site
										{
											OFFSET 0.43262 -0.00000 -0.00000
										}
									}
								}
								JOINT LThumb
								{
									OFFSET 0 0 0
									CHANNELS 3 Zrotation Yrotation Xrotation
									End Site
									{
										OFFSET 0.43922 -0.00000 0.43922
									}
								}
							}
						}
					}
				}
				JOINT RightShoulder
				{
					OFFSET 0 0 0
					CHANNELS 3 Zrotation Yrotation Xrotation
					JOINT RightArm
					{
						OFFSET -3.21387 0.93002 -0.34594
						CHANNELS 3 Zrotation Yrotation Xrotation
						JOINT RightForeArm
						{
							OFFSET -5.23431 -0.00000 0.00000
							CHANNELS 3 Zrotation Yrotation Xrotation
							JOINT RightHand
							{
								OFFSET -3.55301 -0.00000 -0.00000
								CHANNELS 3 Zrotation Yrotation Xrotation
								JOINT RightFingerBase
								{
									OFFSET 0 0 0
									CHANNELS 3 Zrotation Yrotation Xrotation
									JOINT RightHandIndex1
									{
										OFFSET -0.77252 -0.00000 -0.00000
										CHANNELS 3 Zrotation Yrotation Xrotation
										End Site
										{
											OFFSET -0.62283 -0.00000 -0.00000
										}
									}
								}
								JOINT RThumb
								{
									OFFSET 0 0 0
									CHANNELS 3 Zrotation Yrotation Xrotation
									End Site
									{
										OFFSET -0.63234 -0.00000 0.63234
									}
								}
							}
						}
					}
				}
			}
		}
	}
}
MOTION
Frames: 17
Frame Time: 0.117647
0.00 0.00 0.00 0 0 0 0 0 0 -21 0 0 0 0 0 0 0 0 0 0 0 0 0 0 21 0 0 0 0 0 0 0 0 0 0 0 0 0 0 0 0 0 0 0 0 0 0 -16 0 0 21 0 0 11 0 0 0 -8 0 0 0 0 0 0 0 0 0 0 0 0 0 0 0 0 0 0 0 0 8 0 0 0 0 0 0 0 0 0 0 0 0 0 0 0 0 0
0.00 0.00 0.00 5.1647 -86.9944 -7.3928 0.0000 0.0000 0.0000 -18.8367 -3.9491 -11.2779 8.1657 16.2398 53.1573 -0.1504 -6.9679 1.2369 0.1920 -2.8221 -7.7839 0.0000 0.0000 0.0000 25.0800 0.9197 -10.1781 -1.7242 -8.2663 23.5258 -0.2332 3.3016 -8.5816 -0.5867 -4.9043 13.6358 1.1194 1.5473 10.4398 1.0526 2.1932 1.1329 0.1550 1.0522 -4.6695 -11.4975 -3.4734 -18.9969 5.2852 -3.9411 35.3218 3.4664 -2.7769 16.1642 0.0000 0.0000 0.0000 -89.7716 4.6530 19.4292 17.4537 -27.4520 -4.2944 -0.0000 -0.0000 6.4476 20.6961 25.0394 9.0845 -7.1250 0.0000 -0.0000 -9.7156 56.2518 -2.6989 0.0000 0.0000 0.0000 88.7191 0.3778 15.8623 -16.2100 25.8046 -3.7369 0.0000 0.0000 7.8299 -13.6317 8.2422 -1.9911 7.1250 -0.0000 -0.0000 9.5630 -21.5465 5.4575
0.00 0.00 0.00 20.2384 -82.8742 -22.6382 0.0000 0.0000 0.0000 -21.6626 5.8493 2.4610 4.9266 13.3006 40.5045 0.3199 -6.5707 15.0810 0.0342 -1.1939 -3.2824 0.0000 0.0000 0.0000 21.7077 0.7344 -14.7250 -1.7129 -8.2406 23.4474 -0.0710 2.3304 -4.7630 -0.7669 -5.5920 15.6052 -0.2530 0.6911 8.5319 0.9758 0.9131 0.7428 1.0460 0.4543 -4.0341 -11.4543 -3.0102 -19.1358 4.6179 -2.9464 35.3319 3.3568 -2.4465 16.0731 -0.0000 -0.0000 0.0000 -90.9520 5.2995 17.4138 14.6987 -23.7246 -3.1037 -0.0000 -0.0000 9.8701 18.6733 25.2247 8.1959 -7.1250 0.0000 -0.0000 -11.9167 56.0210 -3.2546 -0.0000 -0.0000 0.0000 87.6204 0.6489 16.3912 -17.5482 27.5748 -4.3381 0.0000 0.0000 6.3426 -13.9916 8.0946 -2.0094 7.1250 -0.0000 -0.0000 9.3097 -21.6814 5.2802
0.00 0.00 0.00 17.0243 -77.2904 -19.1252 0.0000 0.0000 0.0000 -23.9343 2.4485 10.7633 1.9458 8.7522 25.0231 -0.4379 -11.6346 4.5405 0.8267 -5.8008 -16.2076 0.0000 0.0000 0.0000 18.6862 3.5132 -19.5317 -2.1448 -9.1614 26.3016 0.0346 -4.1384 -4.1710 -1.2121 -6.9840 19.6681 -2.2293 -0.4604 8.7242 1.0077 -0.8098 0.9434 2.3974 -0.3709 -3.8680 -12.3707 -3.2479 -19.2951 5.8237 -3.4436 35.8577 3.9781 -2.6301 16.4869 -0.0000 -0.0000 0.0000 -90.6033 2.3782 22.1684 15.5610 -24.9218 -3.4589 -0.0000 -0.0000 8.0851 19.1611 25.2311 8.4253 -7.1250 0.0000 -0.0000 -11.4125 56.1275 -3.1438 -0.0000 -0.0000 0.0000 87.1386 0.9741 15.9405 -18.2514 28.4778 -4.6685 0.0000 0.0000 5.6035 -14.4898 8.0174 -2.0643 7.1250 -0.0000 -0.0000 8.9530 -21.7393 5.0609
0.00 0.00 0.00 11.4914 -68.1444 -11.4657 0.0000 0.0000 0.0000 -25.8438 -2.9211 2.0682 1.0007 6.3659 17.8498 -0.5600 -14.2543 -0.7024 0.6270 -5.0670 -14.0999 0.0000 0.0000 0.0000 12.7711 2.0409 -25.3807 -4.9761 -13.3568 40.7191 -0.3226 -3.4511 -12.5649 -0.2000 -2.8794 7.9432 -4.4035 -0.2363 10.8197 0.3911 -0.8520 0.9117 3.0216 -0.3336 -5.0484 -10.9321 -2.3083 -19.0907 4.1103 -1.7720 35.8626 3.2946 -1.9370 16.1805 0.0000 0.0000 0.0000 -88.7639 -3.3858 22.4889 17.6095 -27.6542 -4.3665 -0.0000 -0.0000 6.1317 20.6351 24.9898 9.0392 -7.1250 0.0000 -0.0000 -9.7572 56.1886 -2.6956 0.0000 0.0000 0.0000 91.5441 -4.2428 6.7185 -16.5101 26.2074 -3.8685 0.0000 0.0000 5.7488 -14.3180 6.5089 -1.6572 7.1250 -0.0000 -0.0000 9.1436 -23.2819 4.8448
0.00 0.00 0.00 8.1149 -62.8815 -8.7822 0.0000 0.0000 0.0000 -24.0227 -5.4981 -1.8064 1.2267 7.0245 19.7879 -1.1489 -18.7006 4.6243 0.2429 -3.1718 -8.7573 0.0000 0.0000 0.0000 14.8481 -0.3655 -17.9267 -9.1489 -16.9026 56.6036 -0.1825 4.5779 -7.7651 -0.0163 0.8247 -2.2665 -4.5875 0.0528 10.0588 -0.1213 -0.4734 0.9605 2.5241 -0.1587 -4.6069 -11.0791 -2.3748 -18.4111 4.8008 -2.1331 36.0820 3.5680 -2.0091 16.1727 -0.0000 0.0000 0.0000 -86.1113 -0.7563 22.4739 16.9603 -26.8054 -4.0694 -0.0000 -0.0000 7.1138 21.1778 24.5975 9.1609 -7.1250 0.0000 -0.0000 -9.0127 55.9009 -2.4245 -0.0000 0.0000 0.0000 93.0747 -6.1959 5.1539 -14.7069 23.7363 -3.1070 0.0000 0.0000 8.5643 -14.0613 7.0367 -1.7575 7.1250 -0.0000 -0.0000 9.3057 -22.7536 5.0472
0.00 0.00 0.00 2.7018 -52.5386 -1.5555 0.0000 0.0000 0.0000 -18.6302 -16.9778 -16.1960 1.5455 7.8471 22.2508 -0.8712 -18.8865 17.3904 0.3602 3.8555 10.6705 0.0000 0.0000 0.0000 24.7694 -2.2936 5.4938 -2.0640 -8.9981 25.7893 -0.3813 5.7583 -11.1009 -0.0110 -0.6780 1.8632 1.7238 3.0921 9.5183 -0.1378 4.2833 0.2781 -1.6865 2.0688 -4.9027 -10.0916 -0.9707 -18.5720 1.6790 1.1555 37.3468 2.6850 -0.9287 16.5616 0.0000 0.0000 0.0000 -88.4344 2.9417 15.3680 17.3921 -27.3718 -4.2661 -0.0000 -0.0000 6.2138 20.4891 26.4800 9.4594 -7.1250 0.0000 -0.0000 -10.6301 57.6664 -3.3213 0.0000 0.0000 0.0000 87.8404 1.7224 15.8471 -15.9488 25.4512 -3.6239 0.0000 0.0000 7.1245 -14.5921 6.8456 -1.7773 7.1250 -0.0000 -0.0000 8.9271 -22.9298 4.8004
0.00 0.00 0.00 4.1149 -23.1561 -0.5627 0.0000 0.0000 0.0000 -25.3048 -3.9651 -14.5349 1.8946 8.6430 24.6848 -1.2379 -20.0437 13.6999 0.4264 4.1910 11.6147 0.0000 0.0000 0.0000 23.2085 4.1832 5.0872 -3.1501 -10.9342 32.0584 1.2195 19.2137 9.5633 -0.1415 -2.4246 6.6806 -1.0393 2.3896 6.9738 -1.0694 3.0554 0.3009 -0.8256 1.5245 -3.5916 -9.4413 0.2549 -18.5831 3.3520 2.5500 40.3726 3.7486 -0.0551 18.0460 0.0000 0.0000 0.0000 -85.8521 3.4638 12.6500 15.1138 -24.3044 -3.2726 -0.0000 -0.0000 8.4843 20.2027 25.9847 9.1587 -7.1250 0.0000 -0.0000 -10.6861 57.1047 -3.1939 0.0000 0.0000 0.0000 90.4340 -4.5532 14.0194 -17.4099 27.3950 -4.2743 0.0000 0.0000 6.7292 -15.0002 8.7972 -2.3467 7.1250 -0.0000 -0.0000 8.5594 -20.9208 4.9939
0.00 0.00 0.00 3.0215 -19.7300 1.7841 0.0000 0.0000 0.0000 -23.6332 -5.2837 -19.5062 1.0567 6.5362 18.3484 1.7160 -5.8180 27.4154 3.9026 12.0297 35.8372 0.0000 0.0000 0.0000 26.1673 4.3788 2.4461 -2.2608 -9.3895 27.0214 0.3927 13.1329 -2.8071 -0.3192 -3.6316 10.0425 0.9392 2.5561 8.6621 -0.6351 3.4616 0.1761 -1.6152 1.6836 -4.5748 -10.0224 0.0766 -18.3682 2.7632 2.7610 39.0900 3.5624 -0.0430 17.2671 0.0000 -0.0000 0.0000 -88.9193 2.7523 14.2412 15.0318 -24.1905 -3.2390 -0.0000 -0.0000 9.5235 20.6166 24.9487 9.0169 -7.1250 0.0000 -0.0000 -9.7579 56.1430 -2.6850 0.0000 -0.0000 0.0000 88.6902 -0.5669 13.8534 -18.4255 28.6985 -4.7518 0.0000 0.0000 5.7227 -15.3921 7.7805 -2.1344 7.1250 -0.0000 -0.0000 8.3084 -21.9433 4.6497
0.00 0.00 0.00 3.1553 5.2013 1.1120 0.0000 0.0000 0.0000 -25.0723 -2.6447 -9.0814 1.0994 6.6627 18.7198 -1.1340 -18.7620 10.7850 0.1357 2.3740 6.5404 0.0000 0.0000 0.0000 22.9586 -6.5508 -11.0466 -7.7248 -15.9130 51.5652 0.1987 8.5285 6.6173 -0.0008 0.1839 -0.5053 -2.4642 2.6138 9.0469 -1.5365 3.1831 1.7177 -0.5834 1.5998 -3.3288 -11.1743 -0.8770 -14.3759 4.3399 1.0398 41.7016 4.2723 -0.6777 17.8726 0.0000 -0.0000 0.0000 -82.7504 5.4511 13.5456 19.0727 -29.5089 -5.0666 -0.0000 -0.0000 4.8597 18.7866 27.7768 9.0080 -7.1250 0.0000 -0.0000 -13.1639 58.5833 -4.4212 0.0000 -0.0000 0.0000 90.8408 -3.7009 16.1340 -19.4581 29.9839 -5.2578 0.0000 0.0000 5.2674 -14.2873 7.5458 -1.9154 7.1250 -0.0000 -0.0000 9.1185 -22.2276 5.0541
0.00 0.00 0.00 -1.0367 6.8738 1.8546 0.0000 0.0000 0.0000 -20.5751 -7.3648 -28.3353 4.2965 12.5448 37.6875 -1.6475 -23.2629 0.6795 0.8715 -5.9521 -16.6456 0.0000 0.0000 0.0000 31.6098 -8.0740 1.5097 -1.4031 -7.4928 21.1839 -1.1779 2.5548 -19.8263 -0.1104 -2.1420 5.8982 3.3786 4.0735 10.8383 -0.3677 5.7777 1.7933 -3.0598 2.8199 -3.8061 -11.5680 -1.6777 -14.1239 3.7559 0.2935 41.6251 3.9416 -1.0673 17.8884 -0.0000 0.0000 0.0000 -86.8766 4.4112 7.7259 18.3284 -28.5757 -4.7053 -0.0000 -0.0000 7.6937 20.7380 26.4299 9.5660 -7.1250 0.0000 -0.0000 -10.3383 57.6703 -3.2298 -0.0000 0.0000 0.0000 88.0788 -0.3361 14.9079 -19.0668 29.5017 -5.0637 0.0000 0.0000 7.8101 -14.3746 7.5491 -1.9284 7.1250 -0.0000 -0.0000 9.0550 -22.2210 5.0195
0.00 0.00 0.00 2.0757 7.4696 3.0351 0.0000 0.0000 0.0000 -23.2323 -9.1793 -7.3901 1.8750 8.6006 24.5538 0.3593 -16.4413 -14.8940 0.4133 -4.1268 -11.4337 0.0000 0.0000 0.0000 22.9156 -1.7308 -12.3052 -2.9617 -10.6327 31.0510 -1.2414 -1.1665 -21.5067 -0.3003 -3.5232 9.7390 -2.7498 1.5617 8.0581 -0.4766 1.8288 1.5213 0.8587 0.9332 -3.0112 -11.9179 -1.0159 -14.5572 3.5421 1.4294 41.5750 4.0920 -0.7472 17.8405 0.0000 0.0000 0.0000 -86.7168 2.6507 20.7303 22.2444 -33.2521 -6.7193 -0.0000 -0.0000 2.5080 21.7283 28.7997 10.8678 -7.1250 0.0000 -0.0000 -10.5485 60.2877 -3.9594 0.0000 0.0000 0.0000 90.5269 -1.3823 17.7854 -18.5655 28.8752 -4.8192 0.0000 0.0000 6.1684 -14.9645 7.3626 -1.9617 7.1250 -0.0000 -0.0000 8.6339 -22.3883 4.7473
0.00 0.00 0.00 7.4780 49.3407 3.4999 0.0000 0.0000 0.0000 -23.7634 -11.2682 0.2483 0.9797 6.3007 17.6595 -4.3825 -34.0596 14.7565 2.2442 9.3572 26.9192 0.0000 0.0000 0.0000 10.8052 18.4139 -9.7612 -5.3903 -13.8102 42.4826 -0.9583 9.4843 -17.7099 -0.0008 0.1779 -0.4888 -3.7840 1.3768 9.1822 -1.2985 1.4530 1.8410 0.6072 0.7672 -3.2935 -11.7837 -1.1379 -12.5157 2.8995 2.3408 42.7317 4.0474 -0.1541 17.9417 0.0000 0.0000 0.0000 -86.1580 3.3119 16.7623 19.3743 -29.8811 -5.2160 -0.0000 -0.0000 4.1973 23.6815 27.6703 11.5120 -7.1250 0.0000 -0.0000 -7.7424 59.6070 -2.7715 0.0000 0.0000 0.0000 92.0174 -4.0591 15.8297 -18.0766 28.2551 -4.5854 0.0000 0.0000 5.2924 -14.3219 8.0791 -2.0549 7.1250 -0.0000 -0.0000 9.0719 -21.6836 5.1414
0.00 0.00 0.00 -0.3850 167.2700 1.5042 0.0000 0.0000 0.0000 -20.3762 -26.7537 1.9726 4.4646 12.7542 38.4552 -1.4889 -24.2703 22.4409 0.5995 4.9564 13.7842 0.0000 0.0000 0.0000 17.3694 5.7837 -9.8650 -2.6287 -10.0682 29.1978 0.1358 11.8620 -6.2451 -0.1640 2.6090 -7.1919 4.5341 6.8055 12.0589 -2.5931 9.7070 1.5115 -6.6341 4.8255 -3.8948 -5.8363 15.2813 -18.3414 3.5819 20.6809 45.1972 6.2948 6.0875 19.2896 0.0000 -0.0000 0.0000 -89.7024 9.8905 11.7334 16.9932 -26.8489 -4.0843 -0.0000 -0.0000 6.8566 19.3898 27.5384 9.2424 -7.1250 0.0000 -0.0000 -12.3791 58.4824 -4.1222 0.0000 -0.0000 0.0000 86.6922 -3.0074 18.6066 -20.7135 31.4924 -5.8995 0.0000 0.0000 3.0324 -15.1115 7.6700 -2.0641 7.1250 -0.0000 -0.0000 8.5157 -22.0682 4.7437
0.00 0.00 0.00 -363.4680 130.2990 -1.0198 0.0000 0.0000 0.0000 -23.8392 -2.2051 -7.3208 1.5349 7.8214 22.1729 0.5174 -0.8817 -13.3111 0.4119 -4.1199 -11.4141 0.0000 0.0000 0.0000 19.4402 -8.5280 -20.9081 -3.9213 -12.0550 35.9268 -0.3023 -18.1024 -28.0374 -1.5619 -7.8867 22.3704 0.1791 -0.3114 9.7361 1.2312 -0.2911 -0.0531 1.2252 -0.1170 -5.5162 -11.1938 -3.7387 -15.8638 1.7886 0.5762 40.6177 3.2393 -0.3283 17.8603 0.0000 -0.0000 0.0000 -88.0259 4.7411 13.3111 19.4985 -30.0334 -5.2780 -0.0000 -0.0000 3.0823 22.5358 26.7141 10.5662 -7.1250 0.0000 -0.0000 -8.5338 58.3605 -2.8020 0.0000 -0.0000 0.0000 85.5700 -9.2667 11.9104 -18.3826 28.6443 -4.7312 0.0000 0.0000 1.9971 -18.4757 7.8472 -2.6119 7.1250 -0.0000 -0.0000 6.0692 -21.7294 3.4097
0.00 0.00 0.00 -364.0330 162.7740 -5.3633 0.0000 0.0000 0.0000 -23.3530 0.6490 -2.7375 1.5536 7.8668 22.3101 0.4551 -5.7547 -12.0716 0.4201 -4.1600 -11.5274 0.0000 0.0000 0.0000 14.9335 -11.1894 -18.7462 -7.3284 -15.6023 50.1057 1.7209 -26.5573 -25.5497 -2.0921 -9.0554 25.9686 -0.8645 -0.8601 9.6212 2.6410 -0.9804 1.1139 3.3625 -0.3949 -4.1747 -10.3597 -5.9977 -11.8851 3.4267 -3.3189 39.5626 3.1940 -1.1218 16.6125 -0.0000 -0.0000 0.0000 -88.0698 5.0959 27.2743 27.3788 -38.5380 -9.7342 -0.0000 0.0000 -3.5803 19.9745 26.1113 9.0885 -7.1250 0.0000 -0.0000 -10.9914 57.1833 -3.3075 -0.0000 -0.0000 0.0000 85.1529 -8.4318 7.2758 -17.6983 27.7691 -4.4078 0.0000 0.0000 3.0448 -17.5408 6.1807 -1.9491 7.1250 -0.0000 -0.0000 6.7864 -23.5090 3.5401
0.00 0.00 0.00 -362.5450 228.8870 -1.6437 0.0000 0.0000 0.0000 -19.6600 -22.0006 -4.7294 1.4661 7.6520 21.6619 -2.9716 -32.6842 30.0488 2.7559 10.2889 29.9176 0.0000 0.0000 0.0000 18.4950 12.4165 -3.0381 -3.4608 -11.4060 33.6618 -0.2354 18.7961 -15.2113 -0.1897 -2.8051 7.7367 0.5438 0.9142 10.8520 0.4158 1.2163 1.4318 -0.0478 0.5590 -4.5866 -12.2110 -1.0177 -13.9531 3.5435 -1.9431 39.1124 3.1344 -3.0644 16.6138 0.0000 -0.0000 0.0000 -77.5560 0.8176 12.7026 20.3101 -31.0141 -5.6903 -0.0000 0.0000 -0.2679 20.1056 26.4427 9.2582 -7.1250 0.0000 -0.0000 -11.0206 57.5449 -3.4129 0.0000 -0.0000 0.0000 88.0525 -8.1216 20.8564 -19.8890 30.5084 -5.4749 0.0000 0.0000 1.8356 -19.9421 7.2646 -2.6269 7.1250 -0.0000 -0.0000 5.0054 -22.2670 2.7457
